<?xml version="1.0" encoding="UTF-8" standalone="no" ?>
<!DOCTYPE svg PUBLIC "-//W3C//DTD SVG 1.1//EN" "http://www.w3.org/Graphics/SVG/1.1/DTD/svg11.dtd">
<svg xmlns="http://www.w3.org/2000/svg" xmlns:xlink="http://www.w3.org/1999/xlink" version="1.1" width="1080" height="1080" viewBox="0 0 1080 1080" xml:space="preserve">
<desc>Created with Fabric.js 5.2.4</desc>
<defs>
</defs>
<rect x="0" y="0" width="100%" height="100%" fill="transparent"></rect>
<g transform="matrix(1 0 0 1 540 540)" id="fcf5437e-dcfa-4722-9516-04be7a9fe561"  >
<rect style="stroke: none; stroke-width: 1; stroke-dasharray: none; stroke-linecap: butt; stroke-dashoffset: 0; stroke-linejoin: miter; stroke-miterlimit: 4; fill: rgb(255,255,255); fill-rule: nonzero; opacity: 1; visibility: hidden;" vector-effect="non-scaling-stroke"  x="-540" y="-540" rx="0" ry="0" width="1080" height="1080" />
</g>
<g transform="matrix(1 0 0 1 540 540)" id="81a5f72f-1ccf-422d-88ea-3e614bd72638"  >
</g>
<g transform="matrix(1.14 0 0 1.14 555.2 539.84)" id="ea5c2fec-ef98-4e09-bc35-6dcaeb2d7307"  >
<path style="stroke: rgb(0,0,0); stroke-width: 0; stroke-dasharray: none; stroke-linecap: butt; stroke-dashoffset: 0; stroke-linejoin: miter; stroke-miterlimit: 4; fill: rgb(0,0,0); fill-rule: nonzero; opacity: 1;" vector-effect="non-scaling-stroke"  transform=" translate(-480.5, -492.39)" d="M 322.87198 30.4633459 C 334.05869 32.5269472 344.08553 36.5822366 352.647842 43.4667285 C 362.09082500000005 51.0593195 367.583212 62.5230419 367.583212 74.6398631 L 367.583212 84 C 367.583212 96.8327164 361.913564 107.471037 353.45061 114.554304 L 353.001 114.92119 L 352.99899999999997 300.38719000000003 L 353.34057299999995 300.892258 C 357.43492599999996 307.05457800000005 359.8664279999999 314.417181 359.99465899999996 322.339629 L 359.99999999999994 323.001116 L 359.9959999999999 428.61919 L 360.31506899999994 428.589058 C 395.7842589999999 425.14412200000004 433.81740899999994 423.23906800000003 472.98878599999995 423.02090000000004 L 475.38844399999994 423.009651 L 480.49999999999994 423 C 565.2533619999999 423 644.9848 430.918667 704.9577669999999 445.00099 C 736.0020139999999 452.290525 761.4815009999999 461.146336 780.4859179999999 471.696751 C 792.0098249999999 478.094317 801.5497269999998 485.296384 808.9694839999999 493.81050700000003 C 819.0250119999998 505.34916100000004 824.9999999999999 519.164202 824.9999999999999 534.5 L 824.9999999999999 535.33441 L 824.9919999999998 535.3801900000001 L 824.9999999999999 805.9989210000001 L 824.9999999999999 806.4910530000001 C 824.6548309999998 834.3600680000001 810.4885349999998 858.9990720000001 786.6027269999998 879.3094760000001 C 767.1655189999999 895.8371800000001 740.8506419999999 909.8922270000002 708.9561389999999 921.4181650000002 C 647.5937319999999 943.5931250000001 566.5193319999998 956.0000000000001 480.4999999999999 956.0000000000001 C 394.2416719999999 956.0000000000001 312.9588199999999 943.5239340000002 251.5410519999999 921.2360410000001 C 219.59252399999988 909.6422410000001 193.2708549999999 895.5036110000001 173.8830219999999 878.8694660000001 C 150.4953829999999 858.8036130000002 136.56466199999988 834.5270810000001 136.0167879999999 807.178247 L 136.0149999999999 807.02219 L 135.99999999999991 806.661473 L 135.99999999999991 534.5 C 135.99999999999991 518.677212 142.3291659999999 504.547722 152.90936199999993 492.81933 L 153.37204299999993 492.31091499999997 C 161.29943199999994 483.675691 171.48418299999994 476.38803099999996 183.81009199999994 469.917716 C 197.40462499999995 462.781455 214.11737799999995 456.42037999999997 233.60362999999995 450.824611 L 233.99799999999996 450.71119 L 233.99999999999997 322.999406 C 234.00012099999998 314.82567800000004 236.45187299999998 307.22459000000003 240.66001599999998 300.89137200000005 L 240.99999999999997 300.38819000000007 L 240.99899999999997 115.38619000000006 L 240.64087899999996 115.10609900000006 C 232.03290099999995 108.21088300000005 226.14253599999995 97.72480500000006 225.84612499999994 85.00852540000005 L 225.83439799999994 84.00000000000006 L 225.83439799999994 74.63986310000006 C 225.83439799999994 59.90126690000005 233.93937499999993 46.35676370000006 246.92761099999993 39.39027610000006 C 259.1832809999999 32.81671430000006 274.2723199999999 30.03325430000006 294.67831299999995 28.996061800000057 C 305.0286239999999 28.469977800000056 314.3520439999999 28.891682000000056 322.87197999999995 30.463345900000057 z M 175.99968800000002 570.4565560000001 L 176.00000000000003 806.0000000000001 L 176.01100000000002 805.9991900000001 L 176.04079400000003 807.3273200000001 C 178.72977000000003 867.5119680000001 314.011001 916.0000000000001 480.5 916.0000000000001 C 648.210469 916.0000000000001 784.253569 866.7978800000001 785 806.0000000000001 L 784.994343 570.4613000000002 C 780.84894 573.7549870000001 776.103498 576.8608770000002 770.7783989999999 579.8171380000001 C 753.6273449999999 589.3386470000002 729.7859689999999 597.6251060000001 700.3858909999999 604.5285730000002 C 642.0312649999998 618.2308900000002 563.8056919999999 626.0000000000001 480.4999999999999 626.0000000000001 C 397.19430799999986 626.0000000000001 318.9687349999999 618.2308900000002 260.61410899999987 604.5285730000002 C 231.21403099999986 597.6251060000002 207.37265499999987 589.3386470000002 190.22160099999985 579.8171380000001 C 184.89394599999986 576.8594580000001 180.14650399999985 573.7520050000002 175.99968799999985 570.4565560000001 z M 480.5 463.0000000000001 C 475.464642 463.0000000000001 470.457831 463.02869900000013 465.482372 463.0854390000001 C 465.467956 463.0856030000001 465.453633 463.08576700000015 465.439309 463.08593000000013 L 465.482372 463.0854390000001 C 463.881512 463.10369500000013 462.283898 463.12485300000014 460.689623 463.1488930000001 L 465.439309 463.0859300000001 C 463.610842 463.1068420000001 461.786611 463.1315410000001 459.966754 463.1599940000001 L 460.689623 463.1488930000001 C 459.135288 463.1723310000001 457.58412599999997 463.1985070000001 456.036224 463.2274010000001 L 459.966754 463.1599940000001 C 458.33061 463.1855750000001 456.69800299999997 463.2141900000001 455.069033 463.2458170000001 L 456.036224 463.2274010000001 C 452.709542 463.2894980000001 449.39792 463.3641500000001 446.102216 463.4511550000001 C 445.837837 463.4581340000001 445.572544 463.4652200000001 445.307355 463.4723870000001 L 446.102216 463.4511550000001 C 444.388283 463.4964020000001 442.678655 463.5449890000001 440.973453 463.5968890000001 L 445.30735500000003 463.4723870000001 C 443.782486 463.51359300000007 442.261046 463.5574440000001 440.74311900000004 463.60392100000007 L 440.97345300000006 463.5968890000001 C 439.37445800000006 463.6455570000001 437.77935500000007 463.6971370000001 436.18824300000006 463.7516060000001 L 440.74311900000004 463.60392100000007 C 439.02078200000005 463.65665600000005 437.302968 463.7127700000001 435.589802 463.7722350000001 L 436.188243 463.7516060000001 C 434.573323 463.80689000000007 432.962514 463.8651510000001 431.355922 463.9263630000001 L 435.589802 463.7722350000001 C 434.03724300000005 463.8261260000001 432.48850100000004 463.88276700000006 430.943669 463.94213900000005 L 431.355922 463.92636300000004 C 428.11658300000005 464.04978500000004 424.894384 464.18520700000005 421.690179 464.33242900000005 C 421.575646 464.33769100000006 421.461665 464.34294400000005 421.347707 464.34821200000005 L 421.690179 464.33242900000005 C 420.061158 464.407277 418.436787 464.485175 416.817179 464.5660960000001 L 421.347707 464.34821200000005 C 419.804478 464.41955200000007 418.265434 464.49362900000006 416.73067100000003 464.57042100000007 L 416.817179 464.5660960000001 C 415.34424 464.6396890000001 413.875241 464.71578300000004 412.41026600000004 464.79435800000005 L 416.73067100000003 464.57042100000007 C 415.00129200000003 464.65695100000005 413.277348 464.7469290000001 411.55897400000003 464.84032200000007 L 412.41026600000004 464.79435800000005 C 410.85526000000004 464.877762 409.304789 464.96396100000004 407.758953 465.05293200000006 L 411.55897400000003 464.84032200000007 C 410.04322900000005 464.9227020000001 408.53181900000004 465.0077390000001 407.02483700000005 465.09541200000007 L 407.758953 465.05293200000006 C 406.206973 465.14225600000003 404.659664 465.23437400000006 403.11713000000003 465.32926100000003 L 407.02483700000005 465.095412 C 405.4181530000001 465.188886 403.81650200000007 465.28535500000004 402.22 465.384793 C 400.887987 465.467758 399.56028100000003 465.552742 398.23622 465.639775 L 402.22 465.384793 C 400.759586 465.475754 399.30348000000004 465.5692 397.85176800000005 465.66511 L 398.23622000000006 465.63977500000004 C 395.11741800000004 465.84478000000007 392.01884000000007 466.06115400000004 388.94134900000006 466.288694 C 388.8305730000001 466.29688400000003 388.7202480000001 466.30505800000003 388.6099510000001 466.31324600000005 L 388.94134900000006 466.288694 C 387.5090390000001 466.39459400000004 386.08129600000007 466.50291300000004 384.65820700000006 466.613631 L 388.6099510000001 466.313246 C 387.0352260000001 466.430143 385.4660350000001 466.549966 383.9024940000001 466.672685 L 384.6582070000001 466.613631 C 383.0874100000001 466.73584 381.5222840000001 466.860971 379.9629450000001 466.988997 L 383.9024940000001 466.672685 C 382.3563910000001 466.794037 380.8158130000001 466.918221 379.2808710000001 467.045212 L 379.9629450000001 466.988997 C 378.4202330000001 467.115658 376.8831860000001 467.24515099999996 375.3519170000001 467.377452 L 379.2808710000001 467.045212 C 377.9047270000001 467.159065 376.5331130000001 467.275175 375.1661110000001 467.393522 L 375.3519170000001 467.377452 C 372.39784500000013 467.632681 369.4652770000001 467.898356 366.5550240000001 468.174286 C 366.4130460000001 468.187747 366.27169200000014 468.20117799999997 366.13039100000015 468.214634 L 366.5550240000001 468.174286 C 365.14559000000014 468.307918 363.74139000000014 468.443956 362.3425170000001 468.582377 L 366.1303910000001 468.214634 C 364.6289510000001 468.35761099999996 363.1334710000001 468.503319 361.6440610000001 468.651732 C 360.33548300000007 468.782127 359.0320240000001 468.914565 357.7333240000001 469.04907099999997 L 361.6440610000001 468.651732 C 360.2457950000001 468.791063 358.8528800000001 468.932778 357.4654080000001 469.07685499999997 L 357.7333240000001 469.04907099999997 C 356.3638400000001 469.190908 354.9996470000001 469.335046 353.6408350000001 469.48146299999996 L 357.4654080000001 469.07685499999997 C 355.96494500000006 469.23266499999994 354.4708490000001 469.391238 352.9832350000001 469.55254599999995 L 353.6408350000001 469.48146299999996 C 352.1412390000001 469.64305099999996 350.6481960000001 469.80741399999994 349.1618250000001 469.97452699999997 L 352.9832350000001 469.55254599999995 C 351.5772400000001 469.705003 350.1770350000001 469.859904 348.7827200000001 470.01722499999994 C 347.5493820000001 470.15638299999995 346.3209130000001 470.2974039999999 345.0971190000001 470.4403019999999 L 348.7827200000001 470.01722499999994 C 347.3502620000001 470.17884999999995 345.9240210000001 470.34302799999995 344.5041030000001 470.5097359999999 L 345.0971190000001 470.4403019999999 C 343.6038740000001 470.6146629999999 342.11758900000007 470.7918169999999 340.6383880000001 470.9717359999999 L 344.5041030000001 470.5097359999999 C 343.1700600000001 470.66636199999994 341.8416000000001 470.8252189999999 340.5188100000001 470.98628899999994 L 340.6383880000001 470.97173599999996 C 339.30673900000005 471.13370899999995 337.9808320000001 471.297921 336.6607560000001 471.46435399999996 L 340.5188100000001 470.98628899999994 C 339.0193400000001 471.16887199999996 337.5271570000001 471.3542959999999 336.04239000000007 471.54253199999994 L 336.66075600000005 471.46435399999996 C 335.29599500000006 471.63641999999993 333.937467 471.81085899999994 332.58527200000003 471.987646 L 336.04239 471.542532 C 334.712197 471.711172 333.38795600000003 471.882068 332.06976000000003 472.055199 L 332.58527200000003 471.98764600000004 C 329.76019800000006 472.35699900000003 326.96276900000004 472.73660500000005 324.19389500000005 473.12624900000003 C 324.13774600000005 473.13415000000003 324.08209300000004 473.141988 324.02645100000007 473.149829 L 324.19389500000005 473.12624900000003 C 305.44358800000003 475.76484700000003 288.00279300000005 478.863779 272.15481500000004 482.35652300000004 C 271.89715000000007 482.413309 271.63824500000004 482.470568 271.379767 482.527932 L 272.15481500000004 482.35652300000004 C 268.77687800000007 483.100989 265.47130400000003 483.86334600000004 262.24083700000006 484.64295000000004 C 262.08817300000004 484.679791 261.93455900000004 484.716943 261.78111600000005 484.754133 L 262.24083700000006 484.64295000000004 C 261.19167200000004 484.89614300000005 260.15042800000003 485.151156 259.1172010000001 485.40796600000004 L 261.78111600000005 484.754133 C 260.65097800000007 485.028045 259.53008800000003 485.304074 258.41856600000006 485.582192 L 259.1172010000001 485.40796600000004 C 257.9528920000001 485.69735600000007 256.79876100000007 485.989029 255.65494500000008 486.282952 L 258.41856600000006 485.582192 C 257.40571000000006 485.835622 256.40063200000003 486.09078700000003 255.40342100000007 486.347664 L 255.65494500000005 486.282952 C 254.57432700000007 486.56063500000005 253.50291500000006 486.840326 252.44082100000006 487.122 L 255.40342100000007 486.347664 C 254.36131700000007 486.616106 253.32780400000007 486.886419 252.30298600000006 487.15858000000003 L 252.44082100000006 487.122 C 251.44334200000006 487.38653700000003 250.45408300000005 487.652823 249.47313700000007 487.920834 L 252.30298600000006 487.15858000000003 C 251.23987800000006 487.44090800000004 250.18612500000006 487.725225 249.14184200000005 488.011502 L 249.47313700000007 487.920834 C 248.45104600000008 488.200087 247.43798100000006 488.481214 246.43404700000008 488.76419 L 249.14184200000008 488.011502 C 248.10914100000008 488.294604 247.0857000000001 488.579624 246.07163000000008 488.866536 L 246.43404700000008 488.76419 C 245.44977600000007 489.041624 244.47428100000008 489.320835 243.5076640000001 489.60179899999997 L 246.07163000000008 488.866536 C 245.03101600000008 489.160958 244.00027000000009 489.457372 242.9795110000001 489.75575 L 243.5076640000001 489.60179899999997 C 242.52272000000008 489.888092 241.5469930000001 490.176205 240.5805890000001 490.46611399999995 L 242.9795110000001 489.7557499999999 C 242.02382400000008 490.0351069999999 241.07689000000008 490.3161849999999 240.1388090000001 490.5989629999999 L 240.5805890000001 490.4661139999999 C 238.6362790000001 491.04938199999987 236.72970700000008 491.6399209999999 234.8617360000001 492.2375269999999 C 234.81385300000008 492.25284499999987 234.76641400000008 492.2680349999999 234.71900000000008 492.2832289999999 L 234.8617360000001 492.2375269999999 C 233.9561590000001 492.5272409999999 233.05965300000008 492.8186169999999 232.1723190000001 493.1116299999999 L 234.7190000000001 492.2832289999999 C 233.7841570000001 492.5828019999999 232.8590080000001 492.88414699999987 231.9436620000001 493.1872399999999 L 232.1723190000001 493.11162999999993 C 230.3462830000001 493.7146189999999 228.5590830000001 494.32454399999995 226.8115760000001 494.9412039999999 C 226.7508070000001 494.9626479999999 226.69094500000008 494.9837969999999 226.6311300000001 495.00495399999994 L 226.8115760000001 494.9412039999999 C 225.0894100000001 495.5489219999999 223.4057940000001 496.1631809999999 221.7615470000001 496.7837879999999 C 221.6678100000001 496.8191689999999 221.5741250000001 496.8545979999999 221.4805690000001 496.8900479999999 L 221.7615470000001 496.7837879999999 C 220.9396310000001 497.0940139999999 220.1275530000001 497.4058259999999 219.32541400000008 497.7191999999999 L 221.4805690000001 496.89004799999987 C 220.6299170000001 497.21237499999984 219.7898720000001 497.5364079999999 218.9605500000001 497.8621199999999 L 219.3254140000001 497.7191999999999 C 218.5252550000001 498.03180099999986 217.7349870000001 498.3459559999999 216.95471200000011 498.6616419999999 L 218.96055000000013 497.8621199999999 C 218.14052800000013 498.1841789999999 217.33098800000013 498.5078789999999 216.53204300000013 498.8331939999999 L 216.95471200000014 498.66164199999986 C 216.13729900000016 498.99235299999987 215.33085300000013 499.32474399999984 214.53548900000015 499.65878799999984 L 216.53204300000016 498.8331939999998 C 215.77980800000014 499.1394899999998 215.03696300000016 499.44721899999985 214.30360200000015 499.7563569999998 L 214.53548900000015 499.6587879999998 C 213.75374900000014 499.9871099999998 212.98271500000016 500.31702899999976 212.22249800000014 500.6485179999998 L 214.30360200000015 499.7563569999998 C 213.56089000000014 500.0694379999998 212.82790400000016 500.3839639999998 212.10474200000016 500.6999149999998 L 212.22249800000017 500.6485179999998 C 210.74958600000016 501.29077499999977 209.31728200000018 501.9389259999998 207.92639300000016 502.59278299999977 C 207.89035200000015 502.6097259999998 207.85422200000016 502.6267279999998 207.81812000000016 502.64373299999977 L 207.92639300000016 502.59278299999977 C 207.25710100000015 502.9074169999998 206.59739900000017 503.22337299999975 205.94737600000016 503.54062799999974 L 207.81812000000016 502.64373299999977 C 207.09569000000016 502.9840279999998 206.38447400000015 503.3258649999998 205.68458400000017 503.6692179999998 L 205.94737600000016 503.5406279999998 C 205.26013400000016 503.8760479999998 204.58371300000016 504.2129219999998 203.91821700000017 504.5512239999998 L 205.68458400000017 503.66921799999983 C 204.99647300000018 504.00679299999985 204.31931000000017 504.34583299999986 203.65320400000016 504.6863129999998 L 203.91821700000017 504.5512239999998 C 203.23343700000018 504.8993279999998 202.56022700000017 505.2489449999998 201.89870000000016 505.60004699999985 L 203.65320400000016 504.68631299999987 C 203.00656000000015 505.0168449999999 202.37033500000015 505.34873499999986 201.74463000000017 505.6819579999999 L 201.89870000000016 505.6000469999999 C 201.26349000000016 505.9371809999999 200.63905300000016 506.2756839999999 200.02549200000016 506.6155319999999 L 201.74463000000014 505.6819579999999 C 201.09413900000015 506.0283809999999 200.45501600000014 506.37624599999987 199.82737300000014 506.7255259999999 L 200.02549200000013 506.6155319999999 C 199.41087200000013 506.95596699999993 198.80716500000014 507.2977519999999 198.21447400000014 507.6408619999999 L 199.82737300000014 506.7255259999999 C 199.20630600000013 507.0711469999999 198.59648000000013 507.4181539999999 197.99800200000013 507.7665219999999 L 198.21447400000014 507.6408619999999 C 197.61588400000014 507.9873869999999 197.02853100000013 508.33526299999994 196.45252100000013 508.6844669999999 L 197.99800200000013 507.76652199999995 C 197.39723600000013 508.11622199999994 196.80790400000012 508.46729199999993 196.23011700000012 508.81970899999993 L 196.45252100000013 508.6844669999999 C 195.85957900000014 509.0439359999999 195.27865500000013 509.40481199999994 194.70986700000014 509.76706599999994 L 196.23011700000015 508.81970899999993 C 195.68266900000015 509.15361999999993 195.14558400000016 509.48873999999995 194.61895500000014 509.82504499999993 L 194.70986700000014 509.76706599999994 C 194.16162000000014 510.11623899999995 193.62464800000015 510.46669199999997 193.09905400000014 510.81840199999994 L 194.61895500000014 509.82504499999993 C 194.06788500000013 510.17695899999995 193.52826300000015 510.53017199999994 193.00019700000013 510.88465899999994 L 193.09905400000014 510.81840199999994 C 192.05253900000014 511.5186949999999 191.05113400000013 512.2239699999999 190.09565600000013 512.934037 C 190.07347900000013 512.950518 190.05169400000014 512.966729 190.02993200000014 512.982942 L 190.09565600000013 512.934037 C 189.64648600000012 513.267839 189.20746400000013 513.602701 188.77867800000013 513.938601 L 190.02993200000012 512.982942 C 189.5298210000001 513.355538 189.0423530000001 513.7294519999999 188.5676460000001 514.104656 L 188.7786780000001 513.938601 C 188.3046380000001 514.309952 187.8431070000001 514.6825719999999 187.3942010000001 515.056435 L 188.56764600000008 514.104656 C 188.1168270000001 514.460979 187.67751700000008 514.818464 187.2498180000001 515.177089 L 187.3942010000001 515.0564350000001 C 186.9547330000001 515.4224370000001 186.5273650000001 515.7896290000001 186.11220200000008 516.157987 L 187.2498180000001 515.177089 C 186.8167390000001 515.5402260000001 186.3955640000001 515.90453 185.9863990000001 516.269978 L 186.11220200000008 516.157987 C 185.70582800000008 516.518549 185.3111480000001 516.8802270000001 184.9282650000001 517.2429980000001 L 185.9863990000001 516.269978 C 185.5675740000001 516.644052 185.1613340000001 517.019325 184.76778900000008 517.3957690000001 L 184.92826500000007 517.2429980000001 C 184.53733200000008 517.6133960000001 184.15869600000008 517.9849330000001 183.79246600000008 518.3575850000001 L 184.76778900000008 517.3957690000001 C 184.38607800000008 517.7608930000001 184.0163110000001 518.1271190000001 183.65859200000008 518.4944230000001 L 183.79246600000008 518.3575850000001 C 183.42965500000008 518.7267570000001 183.07901900000007 519.097022 182.74066200000007 519.4683570000001 L 183.65859200000008 518.4944230000001 C 183.30115400000008 518.8614380000001 182.9557440000001 519.2295280000001 182.6224640000001 519.5986710000001 L 182.7406620000001 519.4683570000001 C 182.3950790000001 519.8476210000001 182.0623050000001 520.2280010000001 181.7424520000001 520.6094700000001 L 182.6224640000001 519.5986710000001 C 182.2823400000001 519.975395 181.9548500000001 520.3532140000001 181.6401020000001 520.732104 L 181.7424520000001 520.6094700000001 C 181.4223930000001 520.9911840000001 181.1152710000001 521.373989 180.8211980000001 521.7578570000001 L 181.6401020000001 520.732104 C 181.3416880000001 521.0913320000001 181.0547280000001 521.4515220000001 180.7793160000001 521.8126520000001 L 180.8211980000001 521.7578570000001 C 180.2570780000001 522.494234 179.7409760000001 523.2345260000001 179.2736810000001 523.978549 C 179.2558400000001 524.006957 179.2383020000001 524.0349980000001 179.22083300000008 524.063043 L 179.2736810000001 523.978549 C 179.03202700000008 524.3633090000001 178.8034250000001 524.7490670000001 178.5879840000001 525.135798 L 179.22083300000008 524.063043 C 178.9852820000001 524.441219 178.76233900000008 524.820356 178.5521060000001 525.20043 L 178.5879840000001 525.135798 C 178.38016800000008 525.5088420000001 178.18459800000008 525.882791 178.0013720000001 526.257621 L 178.5521060000001 525.20043 C 178.3374090000001 525.588576 178.1359680000001 525.977699 177.9478950000001 526.3677739999999 L 178.0013720000001 526.257621 C 177.81958100000008 526.629517 177.6499410000001 527.0022819999999 177.49254900000008 527.375891 L 177.94789500000007 526.367774 C 177.75712400000006 526.7634410000001 177.58010700000008 527.1600880000001 177.41695700000008 527.5576870000001 L 177.49254900000008 527.3758910000001 C 177.3255780000001 527.7722380000001 177.1723900000001 528.1695350000001 177.03310100000007 528.5677580000001 L 177.41695700000008 527.5576870000001 C 177.2604770000001 527.9390320000001 177.11675400000007 528.3212520000001 176.98589000000007 528.7043250000002 L 177.03310100000007 528.5677580000001 C 176.89827500000007 528.9532160000001 176.77647100000007 529.3395410000002 176.66779100000008 529.7267080000001 L 176.98589000000007 528.7043250000002 C 176.85137300000008 529.0980890000002 176.73044200000007 529.4927540000001 176.62320800000006 529.8882930000002 L 176.66779100000005 529.7267080000003 C 176.55752100000004 530.1195390000003 176.46076200000005 530.5132370000002 176.37762300000006 530.9077760000002 L 176.62320800000006 529.8882930000002 C 176.51770400000007 530.2774540000001 176.42545800000005 530.6674610000002 176.34657500000006 531.0582900000002 L 176.37762300000006 530.9077760000001 C 176.29484200000005 531.3006140000001 176.22556300000005 531.6942860000001 176.16989400000006 532.0887680000001 L 176.34657500000006 531.05829 C 176.26752000000005 531.4499740000001 176.20188600000006 531.842484 176.14978000000005 532.235794 L 176.16989400000006 532.0887680000001 C 176.11375800000005 532.4865510000001 176.07146000000006 532.885157 176.04310900000004 533.28456 L 176.14978000000005 532.235794 C 176.09936300000004 532.6163600000001 176.06161100000006 532.9976740000001 176.03661900000006 533.379715 L 176.00000000000006 534.5 L 176.00900000000004 534.750194 L 176.04079400000003 535.682383 C 178.72977000000003 574.6253909999999 314.011001 606 480.5 606 C 648.670706 606 785 573.9883600000001 785 534.5 C 785 495.406524 651.383659 463.64098 485.535464 463.00957900000003 z M 480.5 472.5000000000001 C 550.300477 472.5000000000001 615.779264 477.6625990000001 664.412508 486.7282130000001 C 688.5767510000001 491.2326160000001 708.042859 496.6037010000001 721.797259 502.6655050000001 C 738.4024000000001 509.9836810000001 748 518.7266340000001 748 530.5000000000001 C 748 542.2733660000001 738.4024 551.0163190000001 721.797259 558.3344950000001 C 708.042859 564.3962990000001 688.5767510000001 569.7673840000001 664.412508 574.271787 C 615.779264 583.337401 550.300477 588.5 480.5 588.5 C 410.699523 588.5 345.220736 583.337401 296.587492 574.271787 C 274.832909 570.2165630000001 256.886183 565.458891 243.486898 560.127165 C 241.617848 559.902458 239.840031 559.152457 238.373517 557.965909 C 222.27818299999998 550.72203 213 542.075794 213 530.5 C 213 518.726634 222.5976 509.983681 239.202741 502.665505 C 252.957141 496.603701 272.423249 491.232616 296.587492 486.728213 C 345.220736 477.662599 410.699523 472.5 480.5 472.5 z M 480.5 529.8085440000001 C 468.901515 529.8085440000001 459.526292 531.1591540000001 450.483121 533.6051970000001 C 448.97506899999996 534.0131020000001 447.50210999999996 534.443022 445.835898 534.954726 C 444.952065 535.2261570000001 442.156698 536.1036770000001 441.756479 536.2274560000001 C 438.044192 537.3755900000001 435.945123 537.895476 433.549752 538.0558330000001 C 431.37133900000003 538.2016660000002 428.962873 538.0257820000002 425.55575500000003 537.5862270000001 C 424.36445100000003 537.4325350000001 423.09819600000003 537.2529200000001 421.300378 536.9868140000001 C 420.975204 536.9386830000001 420.64119900000003 536.8890220000001 420.18678500000004 536.8212960000001 C 419.62375000000003 536.7373450000001 419.32054400000004 536.6921400000001 419.05477300000007 536.6525790000001 C 418.13074500000005 536.515037 417.43290300000007 536.4120780000001 416.74079000000006 536.3116010000001 C 411.2393420000001 535.5129330000001 407.1969670000001 535.0505360000001 403.27852900000005 534.8391820000002 C 400.69520500000004 534.6998420000002 398.33247500000004 534.6878720000002 396.18015600000007 534.8119780000002 C 391.7010000000001 535.0702540000002 388.4795420000001 535.6482120000002 382.1375100000001 537.1508730000002 C 381.75240800000006 537.2421730000002 381.75240800000006 537.2421730000002 381.36324900000005 537.3344930000002 C 371.63082900000006 539.6426890000001 366.15678 540.5000000000002 357.54716500000006 540.5000000000002 C 352.54185500000006 540.5000000000002 349.12956700000007 540.3567300000002 344.67651400000005 540.0355810000002 C 344.79543700000005 540.0441580000002 344.1942450000001 540.0001750000002 343.52816800000005 539.9518440000002 L 343.21852600000005 539.9294050000002 C 342.75431000000003 539.8958100000002 342.30731000000003 539.8636860000003 342.09494100000006 539.8490310000002 C 336.32137800000004 539.4506280000002 331.57059100000004 539.5319180000002 320.86600000000004 540.4624320000001 C 312.27684300000004 541.2090580000001 303.19108600000004 542.9156530000001 293.81097400000004 545.3396770000002 C 291.8053570000001 545.8579720000001 289.2157720000001 546.5900880000002 286.60247400000003 547.3529710000001 L 285.39669200000003 547.7065890000001 C 285.19612800000004 547.7656680000001 284.99593300000004 547.8247610000001 284.79636300000004 547.8837870000001 L 284.160182 548.0723370000001 C 281.90540200000004 548.7419600000001 279.766971 549.391242 278.12178500000005 549.8970390000001 C 284.88793400000003 551.5482280000001 292.28300900000005 553.1248860000001 300.252515 554.6104640000001 C 347.577192 563.4321510000001 411.854233 568.5000000000001 480.5 568.5000000000001 C 549.145767 568.5000000000001 613.422808 563.4321510000001 660.747485 554.6104640000001 C 671.6047179999999 552.5865920000001 681.395814 550.3936750000001 689.982757 548.0743320000001 C 686.502967 547.5114560000002 679.324936 546.9171100000001 667.861243 546.2307150000001 C 665.08701 546.0646070000001 650.6012999999999 545.2381400000002 646.3898089999999 544.9839750000001 C 639.117993 544.5451180000001 632.673471 543.5296720000001 623.9637129999999 541.6636370000001 C 622.9260349999998 541.4413180000001 621.8590879999998 541.2083170000001 620.5063209999998 540.9096240000001 C 620.2909949999998 540.8620800000001 619.6648489999999 540.7234630000002 618.9942939999999 540.5750380000002 L 618.4887759999998 540.4631490000002 C 617.9026489999998 540.3334300000001 617.3526539999998 540.2117560000002 617.0842589999997 540.1525680000002 C 603.8029539999998 537.2236770000002 595.8112129999997 535.9913190000002 584.7416379999997 535.6520660000002 C 574.2790919999998 535.3314170000002 570.3377729999997 535.8011830000003 564.2359889999998 537.4522210000002 C 564.1955369999998 537.4631670000002 563.5478819999998 537.6386820000002 563.3528379999998 537.6913460000002 C 555.9056059999998 539.7021490000002 550.0942349999998 540.5000000000002 538.8418009999998 540.5000000000002 C 526.8333639999998 540.5000000000002 519.6911109999998 538.9680440000002 507.8508289999998 534.8904200000002 C 507.4404669999998 534.7490390000002 507.4404669999998 534.7490390000002 507.0340549999998 534.6089920000002 C 496.5195559999998 530.9868770000002 490.9711969999998 529.8085440000002 480.4999999999998 529.8085440000002 z M 476.643766 540.5000000000001 C 485.62638200000004 540.5000000000001 490.936883 541.6278170000002 499.40587300000004 544.5452800000002 C 499.49549200000007 544.5761620000002 499.55523700000003 544.5967500000002 499.604863 544.6138500000002 L 499.74313600000005 544.6614940000002 C 499.79227700000007 544.6784250000002 499.85105100000004 544.6986740000002 499.93921200000005 544.7290480000001 C 506.10854400000005 546.8536780000002 509.12181400000003 547.5000000000001 514.841801 547.5000000000001 C 520.364649 547.5000000000001 524.841801 551.9771530000002 524.841801 557.5000000000001 C 524.841801 563.0228470000001 520.364649 567.5000000000001 514.841801 567.5000000000001 C 506.53253400000006 567.5000000000001 501.50930700000004 566.4225590000001 493.426867 563.6390810000001 C 493.15731600000004 563.5462140000002 493.15731600000004 563.5462140000002 492.89180400000004 563.4547200000002 C 486.33835400000004 561.1971370000002 483.05577800000003 560.5000000000002 476.643766 560.5000000000002 C 469.63758900000005 560.5000000000002 463.96488600000004 561.2798370000003 458.519716 562.6993810000002 L 457.949 562.8501940000002 C 457.923629 562.8783200000003 455.000833 563.7808050000002 451.993564 564.5967900000002 L 451.429397 564.7485390000002 C 449.362185 565.2995120000002 447.338036 565.7811930000001 446.269845 565.8810970000002 L 446.134728 565.8920240000002 C 440.624215 566.2609230000003 435.85801 562.0928210000002 435.48911 556.5823080000002 C 435.120211 551.0717940000003 439.28831299999996 546.3055890000003 444.79882699999996 545.9366890000002 L 444.57577799999996 545.9550000000003 L 444.61405999999994 545.9469110000002 C 444.63492499999995 545.9422450000002 444.6584679999999 545.9368280000002 444.68463799999995 545.9306350000003 L 444.77097299999997 545.9097030000003 C 445.12550999999996 545.8218940000003 445.62206399999997 545.6783520000002 446.388045 545.4414500000003 C 446.599052 545.3761900000003 448.450538 544.7949730000003 449.09033999999997 544.5984860000002 C 450.347287 544.2124700000002 451.48513899999995 543.8803590000002 452.67033 543.5597820000002 C 459.945991 541.5918250000002 467.524864 540.5000000000001 476.64376599999997 540.5000000000001 z M 480.5 492.5000000000001 C 411.854233 492.5000000000001 347.57719199999997 497.56784900000014 300.252515 506.38953600000013 C 277.473268 510.6357640000001 259.38705400000003 515.6261090000002 247.26851200000002 520.9669620000001 C 241.605917 523.462567 237.458167 525.9483950000001 234.965742 528.218875 C 234.019045 529.08127 233.41474200000002 529.8185030000001 233.110803 530.376391 C 233.083494 530.426517 233.062914 530.464472 233.047406 530.4919170000001 C 233.05516 530.5218060000001 233.064182 530.5381550000001 233.074679 530.5573410000001 L 233.110803 530.6236090000001 C 233.41474200000002 531.1814970000001 234.019045 531.9187300000001 234.965742 532.7811250000001 C 237.164959 534.7845060000001 240.65294600000001 536.9555490000001 245.33319600000002 539.153032 C 252.42057100000002 536.442537 260.690529 533.888185 270.060312 531.5004270000001 L 270.020445 531.509544 L 269.991893 531.51671 C 269.549063 531.607528 275.280911 529.813996 281.198195 528.092215 L 281.844164 527.904763 C 284.213304 527.219173 286.577267 526.5564430000001 288.55274099999997 526.041765 L 288.80692899999997 525.975805 C 299.181695 523.294741 309.317797 521.390858 319.13399999999996 520.5375680000001 C 330.82435699999996 519.5213650000001 336.60284699999994 519.422491 343.47176099999996 519.8964790000001 C 343.86587499999996 519.9236740000001 344.26026299999995 519.9519430000001 344.80283499999996 519.9915900000001 C 345.45925099999994 520.0397210000001 345.79749599999997 520.0644810000001 346.11515499999996 520.0873900000001 C 350.121247 520.3763050000001 353.06731299999996 520.5000000000001 357.54716499999995 520.5000000000001 C 364.27600499999994 520.5000000000001 368.40029499999997 519.8540800000001 376.7479589999999 517.8743010000001 C 377.1353859999999 517.7823910000001 377.1353859999999 517.7823910000001 377.52643599999993 517.6896810000001 C 384.91723399999995 515.938528 389.10897399999993 515.186494 395.0288329999999 514.8451440000001 C 397.9745769999999 514.6752870000001 401.0696809999999 514.6909690000001 404.3557269999999 514.8682120000001 C 408.9988679999999 515.1186550000001 413.5669949999999 515.641192 419.6141519999999 516.5190830000001 C 422.0991959999999 516.8798470000002 424.0435679999999 517.1622380000001 425.5765439999999 517.3825000000002 L 426.9905639999999 517.5845520000001 C 429.9996279999999 518.0114550000002 430.9452699999999 518.1205330000001 431.5449879999999 518.1275740000001 L 431.6682979999999 518.1276060000001 L 431.7465039999999 518.1261370000001 L 431.8227889999999 518.123637 C 431.8480199999999 518.122647 431.8731139999999 518.1215080000001 431.8982529999999 518.1202440000001 L 432.0123099999999 518.113781 C 432.0765339999999 518.109805 432.1427599999999 518.105258 432.2138499999999 518.100499 C 432.2746699999999 518.0964280000001 432.5748079999999 518.043219 433.0868699999999 517.916394 C 433.7474899999999 517.7527749999999 434.58888799999994 517.509549 435.8470659999999 517.12042 C 436.18561099999994 517.015715 439.0066969999999 516.1301219999999 439.9644169999999 515.836 C 441.83130299999993 515.262667 443.5139209999999 514.771553 445.2610769999999 514.298974 C 455.94178499999987 511.410002 467.0582589999999 509.80854400000004 480.4999999999999 509.80854400000004 C 493.5417999999999 509.80854400000004 501.1180849999999 511.41755700000004 513.5481239999999 515.699552 C 513.9578789999999 515.8407520000001 513.9578789999999 515.8407520000001 514.363174 515.9803870000001 C 524.290348 519.399164 529.422644 520.5000000000001 538.8418009999999 520.5000000000001 C 548.3017389999999 520.5000000000001 552.3633009999999 519.9423820000001 558.1393989999999 518.3827970000001 C 558.3237409999999 518.3330230000001 558.9637979999999 518.1595670000002 559.0121849999999 518.1464740000001 C 567.0034179999999 515.9841840000001 572.9107329999999 515.2800900000001 585.354297 515.6614520000002 C 597.908511 516.0462050000002 606.999781 517.4481150000001 621.391318 520.6218420000001 C 621.6492609999999 520.6787260000001 622.157172 520.7910780000001 622.707956 520.9129690000001 L 623.1857259999999 521.018711 C 623.9036389999999 521.1776150000001 624.594612 521.330593 624.8184919999999 521.380027 C 626.1339549999999 521.670483 627.1631399999999 521.8952380000001 628.1535599999999 522.107432 C 635.9641569999999 523.780824 641.4937499999999 524.652108 647.5946239999998 525.020298 C 649.6426669999998 525.143898 654.1786039999998 525.406125 658.5974689999998 525.660928 L 659.5416279999998 525.715361 C 663.7737339999999 525.959322 667.7239659999998 526.186677 669.0566129999999 526.26647 C 684.8549109999999 527.212402 692.5046749999999 527.90985 696.9282479999998 529.122909 C 701.4026949999999 530.349918 704.9608739999999 532.223782 710.0525059999999 535.538591 C 712.4979399999999 537.130644 713.8624029999999 538.015196 714.7581949999999 538.5587 L 714.9727329999998 538.687683 C 715.2745249999998 538.867307 715.5200109999998 539.005069 715.7395009999998 539.119109 C 720.3832499999997 536.933003 723.8464629999997 534.774102 726.0342579999998 532.781125 C 726.9809549999998 531.91873 727.5852579999998 531.1814969999999 727.8891969999997 530.623609 C 727.9165059999997 530.573483 727.9370859999998 530.535528 727.9569999999998 530.5080829999999 L 727.9569999999998 530.491917 C 727.9448399999998 530.4781939999999 727.9358179999998 530.4618449999999 727.9253209999997 530.4426589999999 L 727.8891969999997 530.3763909999999 C 727.5852579999997 529.8185029999999 726.9809549999998 529.0812699999999 726.0342579999998 528.2188749999999 C 723.5418329999998 525.9483949999999 719.3940829999998 523.4625669999999 713.7314879999998 520.966962 C 701.6129459999997 515.6261089999999 683.5267319999998 510.635764 660.7474849999998 506.38953599999996 C 613.4228079999998 497.56784899999997 549.1457669999998 492.49999999999994 480.4999999999998 492.49999999999994 z M 320 323.0000000000001 L 274 323.0000000000001 L 273.99601 461.50539600000013 C 288.36021600000004 458.5012370000001 303.757084 455.8310740000001 319.995715 453.51860500000015 z M 296.708805 97.77842200000012 C 290.173614 97.77842200000012 284.99346399999996 98.19450830000012 281.295438 98.93970670000012 L 281 99.00019420000011 L 281 303.0000000000001 L 313 303.0000000000001 L 313.00238 99.12996060000012 C 312.725995 99.06583490000011 312.43251100000003 99.00224370000012 312.12217300000003 98.93970670000012 C 308.424146 98.19450830000011 303.24399600000004 97.77842200000012 296.70880500000004 97.77842200000012 z M 313 76.00000000000011 L 281 76.00000000000011 L 280.99952 78.71505170000012 C 285.447694 78.09063190000012 290.684122 77.77842200000012 296.70880500000004 77.77842200000012 C 302.99880600000006 77.77842200000012 308.42959600000006 78.11873590000012 313.00117600000004 78.79936370000011 z" stroke-linecap="round" />
</g>
</svg>