<?xml version="1.0" encoding="UTF-8"?>
<svg width="64px" height="64px" viewBox="0 0 64 64" version="1.1" xmlns="http://www.w3.org/2000/svg" xmlns:xlink="http://www.w3.org/1999/xlink">
    <title>measure_wind_strength</title>
    <g id="measure_wind_strength" stroke="none" stroke-width="1" fill="none" fill-rule="evenodd">
        <path d="M47.5,17 C52.1944204,17 56,20.8055796 56,25.5 C56,30.1944204 52.1944204,34 47.5,34 L8,34 C6.8954305,34 6,33.1045695 6,32 C6,30.8954305 6.8954305,30 8,30 L47.5,30 C49.9852814,30 52,27.9852814 52,25.5 C52,23.0147186 49.9852814,21 47.5,21 C45.0147186,21 43,23.0147186 43,25.5 C43,26.6045695 42.1045695,27.5 41,27.5 C39.8954305,27.5 39,26.6045695 39,25.5 C39,20.8055796 42.8055796,17 47.5,17 Z M28.5,10 C33.1944204,10 37,13.8055796 37,18.5 C37,23.1944204 33.1944204,27 28.5,27 L12,27 C10.8954305,27 10,26.1045695 10,25 C10,23.8954305 10.8954305,23 12,23 L28.5,23 C30.9852814,23 33,20.9852814 33,18.5 C33,16.0147186 30.9852814,14 28.5,14 C26.0147186,14 24,16.0147186 24,18.5 C24,19.6045695 23.1045695,20.5 22,20.5 C20.8954305,20.5 20,19.6045695 20,18.5 C20,13.8055796 23.8055796,10 28.5,10 Z M38.5,54 C43.1944204,54 47,50.1944204 47,45.5 C47,40.8055796 43.1944204,37 38.5,37 L12,37 C10.8954305,37 10,37.8954305 10,39 C10,40.1045695 10.8954305,41 12,41 L38.5,41 C40.9852814,41 43,43.0147186 43,45.5 C43,47.9852814 40.9852814,50 38.5,50 C36.0147186,50 34,47.9852814 34,45.5 C34,44.3954305 33.1045695,43.5 32,43.5 C30.8954305,43.5 30,44.3954305 30,45.5 C30,50.1944204 33.8055796,54 38.5,54 Z" id="Combined-Shape" fill="#000000" fill-rule="nonzero"></path>
    </g>
</svg>