<?xml version="1.0" encoding="UTF-8"?>
<svg width="64px" height="64px" viewBox="0 0 64 64" version="1.1" xmlns="http://www.w3.org/2000/svg" xmlns:xlink="http://www.w3.org/1999/xlink">
    <title>level_carbon_filter</title>
    <g id="level_carbon_filter" stroke="none" stroke-width="1" fill="none" fill-rule="evenodd">
        <path d="M32,8 C33.1045695,8 34,8.8954305 34,10 L34,54 C34,55.1045695 33.1045695,56 32,56 C30.8954305,56 30,55.1045695 30,54 L30,10 C30,8.8954305 30.8954305,8 32,8 Z M45.1595297,35.5456476 C45.4708114,35.0065164 46.1332134,34.8384194 46.639046,35.1701924 L55.4483334,40.9481587 C55.602833,41.0494942 55.7328536,41.1880739 55.8279302,41.352744 C56.163363,41.9337044 55.9934117,42.6944882 55.4483334,43.0520023 L46.639046,48.8299686 C46.4695514,48.9411392 46.2744379,49 46.0754208,49 C45.4814823,49 45,48.4868222 45,47.8537852 L45,44 L38,44 C36.8954305,44 36,43.1045695 36,42 C36,40.8954305 36.8954305,40 38,40 L45,40 L45,36.1463758 C45,35.9766812 45.0353442,35.8096493 45.1028858,35.6571304 Z M45.1595297,15.5456476 C45.4708114,15.0065164 46.1332134,14.8384194 46.639046,15.1701924 L55.4483334,20.9481587 C55.602833,21.0494942 55.7328536,21.1880739 55.8279302,21.352744 C56.163363,21.9337044 55.9934117,22.6944882 55.4483334,23.0520023 L46.639046,28.8299686 C46.4695514,28.9411392 46.2744379,29 46.0754208,29 C45.4814823,29 45,28.4868222 45,27.8537852 L45,24 L38,24 C36.8954305,24 36,23.1045695 36,22 C36,20.8954305 36.8954305,20 38,20 L45,20 L45,16.1463758 C45,15.9766812 45.0353442,15.8096493 45.1028858,15.6571304 Z M25,26 C26.1045695,26 27,25.1045695 27,24 C27,22.8954305 26.1045695,22 25,22 C23.8954305,22 23,22.8954305 23,24 C23,25.1045695 23.8954305,26 25,26 Z M25,34 C26.1045695,34 27,33.1045695 27,32 C27,30.8954305 26.1045695,30 25,30 C23.8954305,30 23,30.8954305 23,32 C23,33.1045695 23.8954305,34 25,34 Z M25,42 C26.1045695,42 27,41.1045695 27,40 C27,38.8954305 26.1045695,38 25,38 C23.8954305,38 23,38.8954305 23,40 C23,41.1045695 23.8954305,42 25,42 Z M25,50 C26.1045695,50 27,49.1045695 27,48 C27,46.8954305 26.1045695,46 25,46 C23.8954305,46 23,46.8954305 23,48 C23,49.1045695 23.8954305,50 25,50 Z M14,17 C14.5522847,17 15,16.5522847 15,16 C15,15.4477153 14.5522847,15 14,15 C13.4477153,15 13,15.4477153 13,16 C13,16.5522847 13.4477153,17 14,17 Z M14,25 C14.5522847,25 15,24.5522847 15,24 C15,23.4477153 14.5522847,23 14,23 C13.4477153,23 13,23.4477153 13,24 C13,24.5522847 13.4477153,25 14,25 Z M14,33 C14.5522847,33 15,32.5522847 15,32 C15,31.4477153 14.5522847,31 14,31 C13.4477153,31 13,31.4477153 13,32 C13,32.5522847 13.4477153,33 14,33 Z M14,41 C14.5522847,41 15,40.5522847 15,40 C15,39.4477153 14.5522847,39 14,39 C13.4477153,39 13,39.4477153 13,40 C13,40.5522847 13.4477153,41 14,41 Z M14,49 C14.5522847,49 15,48.5522847 15,48 C15,47.4477153 14.5522847,47 14,47 C13.4477153,47 13,47.4477153 13,48 C13,48.5522847 13.4477153,49 14,49 Z M18,53 C18.5522847,53 19,52.5522847 19,52 C19,51.4477153 18.5522847,51 18,51 C17.4477153,51 17,51.4477153 17,52 C17,52.5522847 17.4477153,53 18,53 Z M18,13 C18.5522847,13 19,12.5522847 19,12 C19,11.4477153 18.5522847,11 18,11 C17.4477153,11 17,11.4477153 17,12 C17,12.5522847 17.4477153,13 18,13 Z M10,13 C10.5522847,13 11,12.5522847 11,12 C11,11.4477153 10.5522847,11 10,11 C9.44771525,11 9,11.4477153 9,12 C9,12.5522847 9.44771525,13 10,13 Z M10,53 C10.5522847,53 11,52.5522847 11,52 C11,51.4477153 10.5522847,51 10,51 C9.44771525,51 9,51.4477153 9,52 C9,52.5522847 9.44771525,53 10,53 Z M10,21 C10.5522847,21 11,20.5522847 11,20 C11,19.4477153 10.5522847,19 10,19 C9.44771525,19 9,19.4477153 9,20 C9,20.5522847 9.44771525,21 10,21 Z M10,29 C10.5522847,29 11,28.5522847 11,28 C11,27.4477153 10.5522847,27 10,27 C9.44771525,27 9,27.4477153 9,28 C9,28.5522847 9.44771525,29 10,29 Z M10,37 C10.5522847,37 11,36.5522847 11,36 C11,35.4477153 10.5522847,35 10,35 C9.44771525,35 9,35.4477153 9,36 C9,36.5522847 9.44771525,37 10,37 Z M10,45 C10.5522847,45 11,44.5522847 11,44 C11,43.4477153 10.5522847,43 10,43 C9.44771525,43 9,43.4477153 9,44 C9,44.5522847 9.44771525,45 10,45 Z M24,17 C25.1045695,17 26,16.1045695 26,15 C26,13.8954305 25.1045695,13 24,13 C22.8954305,13 22,13.8954305 22,15 C22,16.1045695 22.8954305,17 24,17 Z M19,22 C20.1045695,22 21,21.1045695 21,20 C21,18.8954305 20.1045695,18 19,18 C17.8954305,18 17,18.8954305 17,20 C17,21.1045695 17.8954305,22 19,22 Z M19,30 C20.1045695,30 21,29.1045695 21,28 C21,26.8954305 20.1045695,26 19,26 C17.8954305,26 17,26.8954305 17,28 C17,29.1045695 17.8954305,30 19,30 Z M19,38 C20.1045695,38 21,37.1045695 21,36 C21,34.8954305 20.1045695,34 19,34 C17.8954305,34 17,34.8954305 17,36 C17,37.1045695 17.8954305,38 19,38 Z M19,46 C20.1045695,46 21,45.1045695 21,44 C21,42.8954305 20.1045695,42 19,42 C17.8954305,42 17,42.8954305 17,44 C17,45.1045695 17.8954305,46 19,46 Z" id="Combined-Shape" fill="#000000" fill-rule="nonzero"></path>
    </g>
</svg>