<?xml version="1.0" encoding="UTF-8"?>
<svg width="64px" height="64px" viewBox="0 0 64 64" version="1.1" xmlns="http://www.w3.org/2000/svg" xmlns:xlink="http://www.w3.org/1999/xlink">
    <title>alarm_night</title>
    <g id="alarm_night" stroke="none" stroke-width="1" fill="none" fill-rule="evenodd">
        <path d="M35,8 C35.670905,8 36.3387037,8.02757771 37.0022398,8.08244241 C38.6631688,8.21977687 39.4373779,10.20915 38.3062187,11.4330882 C34.9147158,15.1027659 33,19.8989355 33,25 C33,35.4234675 41.0065407,44.0777799 51.3273767,44.9311616 C52.987986,45.0684696 53.7623432,47.0572052 52.6318251,48.2812991 C48.1192476,53.1673936 41.7845468,56 35,56 C21.745166,56 11,45.254834 11,32 C11,18.745166 21.745166,8 35,8 Z M32.741,12.127 L32.6197736,12.1401652 C22.6960775,13.3169557 15,21.7597203 15,32 C15,43.045695 23.954305,52 35,52 C39.2063469,52 43.2007303,50.6961646 46.5197533,48.3522952 L46.758,48.18 L46.6690766,48.1568909 C36.5557423,45.4019064 29.1694398,36.2198312 29.0028752,25.3746246 L29,25 C29,20.4924661 30.2490637,16.1774945 32.5339321,12.4576599 L32.741,12.127 Z" id="Path" fill="#000000" fill-rule="nonzero"></path>
    </g>
</svg>